{
	"asset":{
		"generator":"Khronos glTF Blender I/O v5.0.21",
		"version":"2.0"
	},
	"scene":0,
	"scenes":[
		{
			"name":"Scene",
			"nodes":[
				0
			]
		}
	],
	"nodes":[
		{
			"mesh":0,
			"name":"Cylinder.001",
			"rotation":[
				0,
				0,
				-0.7071068286895752,
				0.7071068286895752
			]
		}
	],
	"materials":[
		{
			"doubleSided":true,
			"name":"Material.001",
			"pbrMetallicRoughness":{
				"baseColorTexture":{
					"index":0
				},
				"metallicFactor":0,
				"roughnessFactor":0.5
			}
		}
	],
	"meshes":[
		{
			"name":"Cylinder.001",
			"primitives":[
				{
					"attributes":{
						"POSITION":0,
						"NORMAL":1,
						"TEXCOORD_0":2
					},
					"indices":3,
					"material":0
				}
			]
		}
	],
	"textures":[
		{
			"sampler":0,
			"source":0
		}
	],
	"images":[
		{
			"mimeType":"image/png",
			"name":"mech_1",
			"uri":"mech_1.png"
		}
	],
	"accessors":[
		{
			"bufferView":0,
			"componentType":5126,
			"count":584,
			"max":[
				0.6358967423439026,
				1.3892556428909302,
				0.8369939923286438
			],
			"min":[
				-0.6358967423439026,
				-1.302801489830017,
				-0.8369939923286438
			],
			"type":"VEC3"
		},
		{
			"bufferView":1,
			"componentType":5126,
			"count":584,
			"type":"VEC3"
		},
		{
			"bufferView":2,
			"componentType":5126,
			"count":584,
			"type":"VEC2"
		},
		{
			"bufferView":3,
			"componentType":5123,
			"count":792,
			"type":"SCALAR"
		}
	],
	"bufferViews":[
		{
			"buffer":0,
			"byteLength":7008,
			"byteOffset":0,
			"target":34962
		},
		{
			"buffer":0,
			"byteLength":7008,
			"byteOffset":7008,
			"target":34962
		},
		{
			"buffer":0,
			"byteLength":4672,
			"byteOffset":14016,
			"target":34962
		},
		{
			"buffer":0,
			"byteLength":1584,
			"byteOffset":18688,
			"target":34963
		}
	],
	"samplers":[
		{
			"magFilter":9728,
			"minFilter":9984
		}
	],
	"buffers":[
		{
			"byteLength":20272,
			"uri":"mini_mech_base.bin"
		}
	]
}
